#!OML:ASF X:\für Bonn\!DataBase\2005_08_11_Bastian_Final\c3d\Bastian.ASF
:FULLY-SPECIFIED
:DEGREES
461
root 1.22724 1.36806 25.128 -810.199 -175.635 -714.708
lowerback 32.0833 2.47631 -1.87707
upperback 25.8308 -6.57579 -1.00248
thorax 12.4023 -8.44055 0.0504138
lowerneck 4.30674 -1.51877 -6.23723
upperneck 19.6249 0.222424 -2.0571
head 5.26431 0.369972 0.479616
rclavicle -4.2043e-014 -1.53064e-014
rhumerus -43.2714 26.804 -85.0067
rradius 57.996
rwrist 19.6002
rhand -36.5853 4.01884
rfingers 7.12502
rthumb -9.67452 -25.739
lclavicle -4.2043e-014 -1.53064e-014
lhumerus -34.9362 -29.9174 77.8924
lradius 44.3794
lwrist 13.5905
lhand -29.9117 -18.5093
lfingers 7.12502
lthumb -3.23223 11.4459
rfemur -17.5714 1.57635 16.172
rtibia 42.6142
rfoot 5.49929 -12.9903
rtoes 0.717589
lfemur -3.78518 -0.859068 -24.8007
ltibia 14.3139
lfoot 7.92205 -7.28669
ltoes -27.1144
462
root 1.22707 1.36238 25.1257 -810.3 -175.686 -714.705
lowerback 31.6803 2.38825 -1.88284
upperback 25.747 -6.54042 -1.03843
thorax 12.4476 -8.35135 -0.00145944
lowerneck 4.5351 -1.5324 -6.34824
upperneck 19.7123 0.227282 -2.05072
head 5.25628 0.381426 0.501619
rclavicle 1.13307e-014 5.1684e-015
rhumerus -43.0068 26.5905 -84.7912
rradius 57.8218
rwrist 19.6361
rhand -36.6429 4.02565
rfingers 7.12502
rthumb -9.73011 -25.7296
lclavicle 1.13307e-014 5.1684e-015
lhumerus -34.959 -29.8175 77.8724
lradius 44.3449
lwrist 13.6347
lhand -29.6867 -18.5197
lfingers 7.12502
lthumb -3.01492 11.4387
rfemur -17.0756 1.95307 16.2423
rtibia 41.9115
rfoot 5.1654 -13.2124
rtoes 0.541776
lfemur -3.73471 -0.849219 -24.7337
ltibia 14.4189
lfoot 7.84911 -7.1465
ltoes -27.2996
463
root 1.22753 1.3576 25.1243 -810.389 -175.71 -714.722
lowerback 31.2592 2.3215 -1.93604
upperback 25.661 -6.48546 -1.06846
thorax 12.5023 -8.25837 -0.0270679
lowerneck 4.75106 -1.55129 -6.42561
upperneck 19.771 0.223609 -2.07396
head 5.24124 0.387985 0.508151
rclavicle -6.75868e-015 3.97569e-016
rhumerus -42.7112 26.4117 -84.5512
rradius 57.6204
rwrist 19.6577
rhand -36.7088 4.03935
rfingers 7.12502
rthumb -9.79368 -25.7129
lclavicle -6.75868e-015 3.97569e-016
lhumerus -34.9706 -29.8221 77.8793
lradius 44.3151
lwrist 13.7434
lhand -29.4874 -18.4652
lfingers 7.12502
lthumb -2.82246 11.4959
rfemur -16.636 2.30775 16.2865
rtibia 41.2766
rfoot 4.82341 -13.39
rtoes 0.257265
lfemur -3.67098 -0.817679 -24.6905
ltibia 14.477
lfoot 7.78729 -6.98026
ltoes -27.4111
464
root 1.22714 1.35216 25.1243 -810.456 -175.761 -714.731
lowerback 30.7972 2.22885 -1.96396
upperback 25.5783 -6.45653 -1.1014
thorax 12.5794 -8.17356 -0.0688605
lowerneck 4.91028 -1.55833 -6.54896
upperneck 19.86 0.234523 -2.05985
head 5.24513 0.398637 0.534724
rclavicle 2.34566e-014 2.82274e-014
rhumerus -42.3677 26.3 -84.3195
rradius 57.363
rwrist 19.6279
rhand -36.7278 4.09733
rfingers 7.12502
rthumb -9.81202 -25.6541
lclavicle 2.34566e-014 2.82274e-014
lhumerus -34.9884 -29.7578 77.876
lradius 44.2961
lwrist 13.8849
lhand -29.2769 -18.4122
lfingers 7.12502
lthumb -2.61912 11.5514
rfemur -16.2583 2.6757 16.3654
rtibia 40.7068
rfoot 4.53746 -13.5678
rtoes -0.0874765
lfemur -3.60837 -0.821592 -24.626
ltibia 14.4786
lfoot 7.7628 -6.79606
ltoes -27.6544
465
root 1.22762 1.34662 25.1233 -810.522 -175.809 -714.747
lowerback 30.3489 2.14094 -1.98361
upperback 25.469 -6.40641 -1.14318
thorax 12.617 -8.06838 -0.120422
lowerneck 5.12817 -1.57792 -6.60328
upperneck 19.9506 0.235405 -2.08347
head 5.23968 0.410434 0.537807
rclavicle 5.56597e-015 -9.54166e-015
rhumerus -42.0506 26.1483 -84.1199
rradius 57.0706
rwrist 19.6076
rhand -36.7386 4.21527
rfingers 7.12502
rthumb -9.82249 -25.5356
lclavicle 5.56597e-015 -9.54166e-015
lhumerus -35.0644 -29.7575 77.8754
lradius 44.2728
lwrist 14.0041
lhand -29.0697 -18.423
lfingers 7.12502
lthumb -2.41901 11.543
rfemur -15.9076 2.993 16.4492
rtibia 40.1976
rfoot 4.22539 -13.6932
rtoes -0.387644
lfemur -3.53028 -0.893134 -24.5601
ltibia 14.4601
lfoot 7.70429 -6.55734
ltoes -27.8991
466
root 1.22731 1.34151 25.1235 -810.566 -175.857 -714.786
lowerback 29.8447 2.06002 -2.01075
upperback 25.3792 -6.3537 -1.17561
thorax 12.7068 -7.96702 -0.168211
lowerneck 5.27835 -1.58938 -6.67141
upperneck 20.0225 0.242045 -2.1028
head 5.23933 0.420349 0.544404
rclavicle -5.51627e-014 1.07344e-014
rhumerus -41.6554 25.9875 -83.8766
rradius 56.7248
rwrist 19.5929
rhand -36.7294 4.43995
rfingers 7.12502
rthumb -9.8136 -25.3114
lclavicle -5.51627e-014 1.07344e-014
lhumerus -35.0915 -29.7301 77.8768
lradius 44.2291
lwrist 14.1484
lhand -28.8229 -18.3886
lfingers 7.12502
lthumb -2.1807 11.58
rfemur -15.6157 3.29708 16.5313
rtibia 39.7365
rfoot 3.9446 -13.8021
rtoes -0.622888
lfemur -3.47741 -0.958106 -24.4932
ltibia 14.4501
lfoot 7.66924 -6.31426
ltoes -28.1476
467
root 1.2274 1.3359 25.1237 -810.631 -175.932 -714.825
lowerback 29.3885 1.96896 -2.02577
upperback 25.2677 -6.31388 -1.1968
thorax 12.7534 -7.87135 -0.199765
lowerneck 5.44599 -1.60483 -6.76215
upperneck 20.1008 0.249894 -2.14752
head 5.23876 0.429585 0.546927
rclavicle 5.86415e-014 -9.14409e-015
rhumerus -41.282 25.9245 -83.652
rradius 56.3664
rwrist 19.5187
rhand -36.6813 4.60313
rfingers 7.12502
rthumb -9.76714 -25.1504
lclavicle 5.86415e-014 -9.14409e-015
lhumerus -35.1482 -29.6662 77.9251
lradius 44.1645
lwrist 14.2817
lhand -28.6037 -18.3461
lfingers 7.12502
lthumb -1.96894 11.6245
rfemur -15.327 3.60367 16.6488
rtibia 39.3323
rfoot 3.66 -13.8878
rtoes -0.727743
lfemur -3.39758 -0.976034 -24.3964
ltibia 14.4221
lfoot 7.65494 -6.12441
ltoes -28.5511
468
root 1.22743 1.32995 25.1242 -810.664 -175.981 -714.874
lowerback 28.9024 1.88492 -2.03688
upperback 25.1605 -6.25958 -1.2419
thorax 12.8165 -7.7632 -0.264436
lowerneck 5.59352 -1.62166 -6.82575
upperneck 20.1775 0.241757 -2.13072
head 5.24048 0.433883 0.563697
rclavicle -4.85035e-014 4.41302e-014
rhumerus -40.8844 25.7762 -83.4442
rradius 55.9861
rwrist 19.4758
rhand -36.6159 4.87092
rfingers 7.12502
rthumb -9.70411 -24.8855
lclavicle -4.85035e-014 4.41302e-014
lhumerus -35.1862 -29.6721 77.9094
lradius 44.1088
lwrist 14.4336
lhand -28.3644 -18.2995
lfingers 7.12502
lthumb -1.73782 11.6732
rfemur -15.105 3.85266 16.7373
rtibia 38.9726
rfoot 3.42361 -13.9215
rtoes -0.966225
lfemur -3.36323 -1.01634 -24.3233
ltibia 14.4111
lfoot 7.64618 -5.88839
ltoes -29
469
root 1.22713 1.32258 25.1248 -810.673 -176.026 -714.944
lowerback 28.4335 1.79925 -2.0794
upperback 25.0162 -6.20431 -1.26668
thorax 12.8334 -7.65437 -0.281779
lowerneck 5.75774 -1.63716 -6.88093
upperneck 20.2409 0.254361 -2.21701
head 5.23557 0.445769 0.547244
rclavicle -5.62561e-014 1.63003e-014
rhumerus -40.4993 25.6855 -83.2186
rradius 55.5722
rwrist 19.398
rhand -36.5296 5.07448
rfingers 7.12502
rthumb -9.62081 -24.6858
lclavicle -5.62561e-014 1.63003e-014
lhumerus -35.2494 -29.6136 77.9744
lradius 44.0236
lwrist 14.5892
lhand -28.1207 -18.2647
lfingers 7.12502
lthumb -1.50248 11.7098
rfemur -14.9466 4.09942 16.8203
rtibia 38.659
rfoot 3.22599 -13.9052
rtoes -1.03121
lfemur -3.3633 -1.07603 -24.2589
ltibia 14.4193
lfoot 7.61914 -5.59408
ltoes -29.2671
470
root 1.22621 1.31621 25.1261 -810.684 -176.075 -715.033
lowerback 27.9373 1.7244 -2.07204
upperback 24.8946 -6.13005 -1.31588
thorax 12.8858 -7.52994 -0.3614
lowerneck 5.86634 -1.66822 -6.89054
upperneck 20.3373 0.236775 -2.23943
head 5.24959 0.446211 0.542671
rclavicle -2.34566e-014 2.22639e-014
rhumerus -40.0953 25.5324 -83.0444
rradius 55.1616
rwrist 19.319
rhand -36.408 5.26598
rfingers 7.12502
rthumb -9.5035 -24.4997
lclavicle -2.34566e-014 2.22639e-014
lhumerus -35.2897 -29.6615 77.9721
lradius 43.9336
lwrist 14.7429
lhand -27.8748 -18.2667
lfingers 7.12502
lthumb -1.265 11.7093
rfemur -14.809 4.2976 16.9021
rtibia 38.3871
rfoot 3.00485 -13.8591
rtoes -1.06639
lfemur -3.3616 -1.06369 -24.1875
ltibia 14.4236
lfoot 7.62223 -5.32399
ltoes -29.4623
471
root 1.2263 1.30881 25.1264 -810.705 -176.123 -715.113
lowerback 27.4826 1.64161 -2.08733
upperback 24.7478 -6.06927 -1.35609
thorax 12.8949 -7.41458 -0.408845
lowerneck 6.01679 -1.68441 -6.94042
upperneck 20.4141 0.239792 -2.273
head 5.25099 0.455595 0.541729
rclavicle 4.47266e-014 -1.07344e-014
rhumerus -39.7578 25.4571 -82.8896
rradius 54.7867
rwrist 19.1772
rhand -36.2513 5.40409
rfingers 7.12502
rthumb -9.35232 -24.3684
lclavicle 4.47266e-014 -1.07344e-014
lhumerus -35.3602 -29.6811 78.0179
lradius 43.8477
lwrist 14.9609
lhand -27.6547 -18.2026
lfingers 7.12502
lthumb -1.0524 11.7746
rfemur -14.6776 4.53129 16.9903
rtibia 38.152
rfoot 2.72294 -13.8059
rtoes -1.18715
lfemur -3.35218 -1.10068 -24.1163
ltibia 14.4448
lfoot 7.59449 -5.05422
ltoes -29.7501
472
root 1.22671 1.30175 25.1282 -810.704 -176.148 -715.213
lowerback 26.9935 1.57275 -2.13237
upperback 24.6075 -5.99556 -1.39828
thorax 12.9313 -7.29709 -0.449109
lowerneck 6.11525 -1.71111 -6.95951
upperneck 20.5034 0.231307 -2.31825
head 5.2646 0.45838 0.531745
rclavicle -1.19271e-014 -4.81059e-014
rhumerus -39.396 25.4121 -82.7551
rradius 54.39
rwrist 18.9916
rhand -36.0881 5.47349
rfingers 7.12502
rthumb -9.19478 -24.306
lclavicle -1.19271e-014 -4.81059e-014
lhumerus -35.4171 -29.6971 78.0536
lradius 43.7387
lwrist 15.0952
lhand -27.41 -18.157
lfingers 7.12502
lthumb -0.816105 11.8211
rfemur -14.5933 4.68944 17.0517
rtibia 37.943
rfoot 2.53763 -13.7009
rtoes -1.33811
lfemur -3.3882 -1.06746 -24.0648
ltibia 14.4927
lfoot 7.57846 -4.81047
ltoes -29.9008
